<svg width="22" height="22" viewBox="0 0 22 22" fill="none" xmlns="http://www.w3.org/2000/svg">
<path d="M11.0049 5.6094C7.88169 5.6094 5.36249 8.01409 5.36249 10.9953C5.36249 13.9766 7.88169 16.3813 11.0049 16.3813C14.1281 16.3813 16.6473 13.9766 16.6473 10.9953C16.6473 8.01409 14.1281 5.6094 11.0049 5.6094ZM11.0049 14.4969C8.9866 14.4969 7.3366 12.9266 7.3366 10.9953C7.3366 9.06409 8.98169 7.49377 11.0049 7.49377C13.0281 7.49377 14.6732 9.06409 14.6732 10.9953C14.6732 12.9266 13.0232 14.4969 11.0049 14.4969V14.4969ZM18.1942 5.38909C18.1942 6.08752 17.6049 6.64534 16.8781 6.64534C16.1464 6.64534 15.562 6.08284 15.562 5.38909C15.562 4.69534 16.1513 4.13284 16.8781 4.13284C17.6049 4.13284 18.1942 4.69534 18.1942 5.38909ZM21.9312 6.66409C21.8477 4.98127 21.4451 3.49065 20.1536 2.26252C18.8669 1.0344 17.3053 0.650024 15.5424 0.565649C13.7254 0.467212 8.27946 0.467212 6.46249 0.565649C4.70446 0.645337 3.14285 1.02971 1.85134 2.25784C0.559819 3.48596 0.162051 4.97659 0.0736587 6.6594C-0.0294662 8.39377 -0.0294662 13.5922 0.0736587 15.3266C0.157141 17.0094 0.559819 18.5 1.85134 19.7281C3.14285 20.9563 4.69955 21.3406 6.46249 21.425C8.27946 21.5235 13.7254 21.5235 15.5424 21.425C17.3053 21.3453 18.8669 20.961 20.1536 19.7281C21.4402 18.5 21.8428 17.0094 21.9312 15.3266C22.0344 13.5922 22.0344 8.39846 21.9312 6.66409V6.66409ZM19.5839 17.1875C19.2009 18.1063 18.4594 18.8141 17.4919 19.1844C16.0433 19.7328 12.6058 19.6063 11.0049 19.6063C9.40401 19.6063 5.9616 19.7281 4.51785 19.1844C3.55535 18.8188 2.81384 18.111 2.42589 17.1875C1.85134 15.8047 1.98393 12.5235 1.98393 10.9953C1.98393 9.46721 1.85625 6.18127 2.42589 4.80315C2.80892 3.8844 3.55044 3.17659 4.51785 2.80627C5.96651 2.25784 9.40401 2.3844 11.0049 2.3844C12.6058 2.3844 16.0482 2.26252 17.4919 2.80627C18.4544 3.1719 19.196 3.87971 19.5839 4.80315C20.1585 6.18596 20.0259 9.46721 20.0259 10.9953C20.0259 12.5235 20.1585 15.8094 19.5839 17.1875Z" fill="white"/>
</svg>
