<svg width="204" height="130" viewBox="0 0 204 130" fill="none" xmlns="http://www.w3.org/2000/svg">
<g clip-path="url(#clip0_1_25)">
<path opacity="0.5" d="M191.138 111.268C190.772 109.755 189.568 108.616 188.682 107.335C187.616 105.757 186.994 103.921 186.879 102.02C186.764 100.119 187.16 98.2224 188.027 96.5269C188.88 94.9055 190.216 93.2288 189.732 91.4583C189.408 90.2673 188.332 89.4513 187.275 88.8121C183.261 86.3945 178.627 85.2029 173.945 85.3841C168.205 85.6184 162.484 87.9109 156.855 86.7753C151.373 85.6653 146.729 82.9169 140.993 82.5909C136.709 82.348 132.471 82.6207 128.178 82.152C117.571 81.0013 106.885 80.7462 96.2347 81.3893C85.5851 80.7463 74.9002 81.0014 64.2934 82.152C60.011 82.6207 55.7712 82.348 51.4782 82.5909C45.7257 82.9148 41.0917 85.6674 35.6077 86.7753C29.9766 87.913 24.2582 85.6184 18.5185 85.3841C13.8357 85.2029 9.20211 86.3945 5.18762 88.8121C4.12234 89.4513 3.05706 90.2673 2.73109 91.4583C2.24958 93.2266 3.58331 94.9034 4.43553 96.5269C5.30317 98.2221 5.70053 100.119 5.58625 102.02C5.47196 103.921 4.8502 105.756 3.78571 107.335C2.8994 108.614 1.69564 109.755 1.32918 111.268C0.592012 114.311 3.54922 116.991 6.44251 118.199C14.3362 121.499 23.9365 119.903 31.1569 124.499C34.3932 126.561 37.2248 129.872 41.0597 129.996C43.6526 130.079 46.0112 128.639 48.2759 127.371C51.665 125.474 55.2079 123.865 58.8669 122.562C62.0627 121.425 65.4482 120.513 68.8209 120.89C73.9704 121.459 96.2304 132.214 106.265 125.858C113.139 121.501 118.499 121.465 123.661 120.888C127.034 120.511 130.417 121.422 133.615 122.56C137.274 123.863 140.817 125.471 144.206 127.369C146.469 128.636 148.83 130.077 151.422 129.994C155.257 129.87 158.089 126.559 161.325 124.497C168.541 119.899 178.14 121.497 186.04 118.197C188.918 116.984 191.877 114.313 191.138 111.268Z" fill="url(#paint0_linear_1_25)"/>
<path d="M190.094 111.206C189.732 109.715 188.541 108.582 187.665 107.316C186.614 105.754 186 103.938 185.888 102.059C185.775 100.179 186.168 98.3034 187.026 96.627C187.878 95.0227 189.191 93.3651 188.714 91.6159C188.392 90.4377 187.329 89.6303 186.285 88.9996C182.315 86.6081 177.732 85.4292 173.101 85.6078C167.425 85.8379 161.768 88.1069 156.199 86.982C150.775 85.8869 146.186 83.164 140.503 82.8423C136.266 82.6037 132.066 82.8721 127.831 82.4162C117.34 81.2782 106.772 81.0259 96.239 81.662C85.7059 81.0259 75.1379 81.2782 64.6471 82.4162C60.4116 82.8807 56.2122 82.6101 51.9746 82.8423C46.2945 83.1619 41.7032 85.8847 36.2788 86.982C30.7117 88.1069 25.0529 85.8379 19.3771 85.6078C14.7458 85.4292 10.1633 86.6081 6.19323 88.9996C5.14926 89.6388 4.08611 90.4377 3.7644 91.6159C3.28715 93.3651 4.61662 95.0248 5.4518 96.627C6.30944 98.3034 6.70248 100.179 6.59008 102.059C6.47768 103.938 5.86394 105.754 4.81263 107.316C3.93485 108.582 2.74599 109.709 2.3838 111.206C1.63598 114.215 4.56123 116.865 7.4183 118.05C15.2268 121.312 24.7205 119.733 31.8558 124.279C35.0516 126.318 37.8575 129.595 41.6563 129.717C44.213 129.8 46.5566 128.374 48.7937 127.119C52.1459 125.242 55.6503 123.651 59.2696 122.362C62.4335 121.235 65.7784 120.334 69.1149 120.707C74.2282 121.277 96.2368 131.907 106.152 125.622C112.951 121.314 118.252 121.277 123.357 120.707C126.693 120.334 130.04 121.235 133.202 122.362C136.821 123.651 140.326 125.242 143.678 127.119C145.917 128.372 148.25 129.798 150.815 129.717C154.608 129.595 157.409 126.321 160.616 124.279C167.753 119.733 177.247 121.312 185.053 118.05C187.9 116.865 190.825 114.215 190.094 111.206Z" fill="#00BAFC"/>
<path opacity="0.6" d="M8.04681 46.706C8.65615 46.4929 9.30384 46.2905 9.94087 46.4013C11.0061 46.5867 11.754 47.5966 12.0714 48.6341C12.3889 49.6717 12.3782 50.7647 12.5806 51.83C12.783 52.8953 13.2667 53.9967 14.2212 54.5059C15.1756 55.0152 16.3027 54.8149 17.3616 54.6913C18.7504 54.5311 20.1523 54.5183 21.5439 54.653C22.7114 54.7659 24.0835 55.16 24.4265 56.2828C24.7077 57.199 24.1495 58.1343 23.7873 59.0185C23.0928 60.6718 23.0374 62.6255 23.8321 64.2319C24.6268 65.8384 26.2375 67.0357 26.9107 68.7316C27.1058 69.1558 27.1625 69.6306 27.0727 70.0888C26.9731 70.4096 26.8092 70.7068 26.5911 70.9623C26.0628 71.642 25.4321 72.2407 24.9506 72.9565C23.9471 74.4479 23.6723 76.3015 23.5572 78.0933C23.4425 79.8552 23.4524 81.623 23.5871 83.3835C22.2789 82.9573 20.8344 83.3366 19.4858 83.0575C16.6159 82.4652 14.8241 79.0691 11.901 78.8624C10.5183 78.7644 9.03113 79.4164 7.79754 78.7836C7.2082 78.444 6.747 77.9199 6.48511 77.2922C5.96373 76.1811 5.84473 74.9234 6.14849 73.7342C6.36154 72.9118 6.78765 72.1064 6.70456 71.2606C6.63425 70.5362 6.19962 69.8971 5.70107 69.3666C4.27999 67.8581 2.21762 66.9356 1.19708 65.131C0.732925 64.2738 0.539249 63.2962 0.641552 62.3268C0.743855 61.3574 1.13734 60.4417 1.7702 59.7002C2.13444 59.3447 2.47937 58.9699 2.80352 58.5774C3.29355 57.8871 3.44268 57.0157 3.50873 56.1699C3.64935 54.1438 3.29568 51.9983 3.95828 50.0297C4.5527 48.2485 6.36793 47.3026 8.04681 46.706Z" fill="#00BAFC"/>
<path opacity="0.6" d="M8.07666 46.7656C8.07666 46.7656 13.8952 79.0797 21.4501 82.9339" stroke="#535461" stroke-miterlimit="10"/>
<path opacity="0.6" d="M24.2646 55.7097C24.2646 55.7097 18.0327 56.5619 11.8073 62.9643" stroke="#535461" stroke-miterlimit="10"/>
<path opacity="0.6" d="M12.9023 66.7183C12.9023 66.7183 8.10647 62.031 0.613312 62.8257" stroke="#535461" stroke-miterlimit="10"/>
<path opacity="0.6" d="M27.0087 68.7572C27.0087 68.7572 18.2564 69.5008 15.0158 72.8606" stroke="#535461" stroke-miterlimit="10"/>
<path opacity="0.6" d="M16.3261 75.9905C16.3261 75.9905 11.4259 75.1383 6.90271 78.0252" stroke="#535461" stroke-miterlimit="10"/>
<path opacity="0.6" d="M188.183 21.3226C187.205 20.9753 186.168 20.6579 185.147 20.8347C183.443 21.133 182.241 22.7522 181.738 24.4119C181.235 26.0716 181.246 27.8421 180.922 29.5465C180.598 31.251 179.823 33.0172 178.293 33.8353C176.763 34.6535 174.957 34.3296 173.259 34.1336C171.034 33.8743 168.789 33.8508 166.56 34.0633C164.687 34.2444 162.491 34.8772 161.941 36.6754C161.492 38.1454 162.384 39.6411 162.981 41.0579C164.095 43.7062 164.185 46.8402 162.908 49.4161C161.611 52.0366 159.052 53.9115 157.974 56.628C157.701 57.3183 157.529 58.0832 157.714 58.8012C157.874 59.3161 158.137 59.7931 158.487 60.2031C159.34 61.2939 160.345 62.2548 161.117 63.3989C162.725 65.7851 163.162 68.7594 163.349 71.6314C163.533 74.4548 163.518 77.2876 163.302 80.1088C165.399 79.4185 167.717 80.0343 169.877 79.589C174.477 78.6409 177.349 73.1973 182.034 72.8649C184.25 72.7094 186.634 73.7513 188.611 72.7371C189.574 72.2428 190.258 71.3203 190.716 70.3381C191.538 68.5577 191.718 66.5476 191.226 64.6495C190.878 63.3307 190.203 62.0417 190.335 60.6846C190.448 59.5234 191.142 58.4986 191.944 57.6507C194.221 55.2325 197.528 53.7539 199.164 50.8627C200.698 48.1527 200.31 44.486 198.246 42.1573C197.705 41.5458 197.061 41.0217 196.588 40.357C195.802 39.2512 195.551 37.8536 195.457 36.4985C195.233 33.2494 195.785 29.8128 194.735 26.6575C193.776 23.7855 190.868 22.2664 188.183 21.3226Z" fill="#00BAFC"/>
<path opacity="0.6" d="M188.128 21.4078C188.128 21.4078 178.802 73.2037 166.69 79.3802" stroke="#535461" stroke-miterlimit="10"/>
<path opacity="0.6" d="M162.18 35.7443C162.18 35.7443 172.168 37.1163 182.147 47.375" stroke="#535461" stroke-miterlimit="10"/>
<path opacity="0.6" d="M180.392 53.3895C180.392 53.3895 188.081 45.8708 200.089 47.1491" stroke="#535461" stroke-miterlimit="10"/>
<path opacity="0.6" d="M157.793 56.6578C157.793 56.6578 171.82 57.8488 177.015 63.237" stroke="#535461" stroke-miterlimit="10"/>
<path opacity="0.6" d="M174.905 68.2523C174.905 68.2523 182.765 66.876 190.011 71.512" stroke="#535461" stroke-miterlimit="10"/>
<path d="M16.5627 0V5.32425V105.505H171.439V5.32425V0H16.5627Z" fill="url(#paint1_linear_1_25)"/>
<path d="M169.798 4.78735H18.8594V103.596H169.798V4.78735Z" fill="white"/>
<path d="M169.798 0.0874023H18.8594V7.35685H169.798V0.0874023Z" fill="#EEEEEE"/>
<path d="M24.6033 5.3733C25.5764 5.3733 26.3653 4.58444 26.3653 3.61133C26.3653 2.63823 25.5764 1.84937 24.6033 1.84937C23.6302 1.84937 22.8414 2.63823 22.8414 3.61133C22.8414 4.58444 23.6302 5.3733 24.6033 5.3733Z" fill="#FF5252"/>
<path d="M29.4504 5.3733C30.4235 5.3733 31.2123 4.58444 31.2123 3.61133C31.2123 2.63823 30.4235 1.84937 29.4504 1.84937C28.4772 1.84937 27.6884 2.63823 27.6884 3.61133C27.6884 4.58444 28.4772 5.3733 29.4504 5.3733Z" fill="#FFFF00"/>
<path d="M34.2974 5.3733C35.2705 5.3733 36.0593 4.58444 36.0593 3.61133C36.0593 2.63823 35.2705 1.84937 34.2974 1.84937C33.3243 1.84937 32.5354 2.63823 32.5354 3.61133C32.5354 4.58444 33.3243 5.3733 34.2974 5.3733Z" fill="#69F0AE"/>
<path opacity="0.5" d="M80.8904 19.0002H24.6438V21.3439H80.8904V19.0002Z" fill="#00BAFC"/>
<path opacity="0.5" d="M80.8904 23.6875H24.6438V26.0311H80.8904V23.6875Z" fill="#00BAFC"/>
<path opacity="0.5" d="M80.8904 28.3748H24.6438V30.7184H80.8904V28.3748Z" fill="#00BAFC"/>
<path opacity="0.5" d="M80.8905 33.0619H44.0319V35.4055H80.8905V33.0619Z" fill="#00BAFC"/>
<path opacity="0.5" d="M54.2585 37.7491H24.6438V40.0928H54.2585V37.7491Z" fill="#00BAFC"/>
<path opacity="0.5" d="M63.4199 42.4364H40.623V44.78H63.4199V42.4364Z" fill="#00BAFC"/>
<path opacity="0.5" d="M154.608 35.4055H88.3474V73.5424H154.608V35.4055Z" fill="#00BAFC"/>
<path d="M162.491 39.0275H96.2305V77.1644H162.491V39.0275Z" fill="#EEEEEE"/>
<path opacity="0.5" d="M202.328 74.2115C202.465 74.0357 202.54 73.819 202.541 73.5958C202.541 73.5958 202.541 73.583 202.541 73.5787C202.541 73.5745 202.554 73.534 202.56 73.5127V73.485C202.561 73.4644 202.561 73.4438 202.56 73.4232C202.56 73.4232 202.56 73.4061 202.56 73.3976C202.562 73.3721 202.562 73.3464 202.56 73.3209C202.434 72.4687 197.37 66.9165 196.104 60.1434C195.964 59.4061 195.755 58.6835 195.48 57.9852C195.519 57.6359 195.496 57.2825 195.412 56.9412C195.199 56.0741 194.773 55.1942 194.986 54.3292C195.016 54.216 195.055 54.1056 195.103 53.9989C195.369 53.6085 195.613 53.2038 195.834 52.7866C195.916 52.6506 195.988 52.5081 196.047 52.3605C196.825 50.3109 194.417 48.1953 194.86 46.0562C195.052 45.1294 195.77 44.3198 195.751 43.376C195.727 42.2958 194.734 41.4585 193.703 41.058C192.672 40.6574 191.537 40.5424 190.525 40.0949C188.307 39.1128 187.092 36.7415 185.068 35.4226C182.497 33.7502 179.141 34.0484 176.058 34.4809C175.957 34.4958 175.86 34.5355 175.778 34.5965C175.695 34.6574 175.629 34.7377 175.585 34.8303V34.8303H175.555C175.532 34.8985 175.504 34.9646 175.474 35.0306C175.048 35.7571 174.33 36.309 173.621 36.8182C172.756 37.4275 171.829 38.0283 171.301 38.9317C171.222 39.0659 171.156 39.1937 171.098 39.3173C169.948 41.369 171.33 42.2553 173.016 42.7475C172.965 43.041 172.939 43.3382 172.939 43.6359C172.939 46.6187 175.434 49.0539 178.508 49.0539C178.751 49.0536 178.994 49.038 179.235 49.007L179.414 49.1242H179.454C180.025 49.5354 180.519 50.051 180.732 50.6646L178.947 52.0282C178.947 52.0282 179.02 52.2157 179.126 52.5139L172.108 55.7481C169.449 55.8717 165.145 47.4965 165.145 47.4965C165.145 47.4965 164.506 42.6942 162.233 41.8313C161.547 41.5714 161.274 42.1147 161.227 43.001C160.211 44.0663 161.918 50.0489 161.918 50.0489L167.361 59.6556C167.868 60.6399 168 61.2556 170.399 61.6263C172.374 61.9289 178.527 59.7429 180.669 58.9503L180.769 59.8026C180.52 60.4522 180.41 61.1467 180.445 61.8415C180.445 63.4117 181.146 65.6957 184.567 67.5152C184.567 67.5152 188.1 72.0809 187.708 76.3911C187.708 76.3911 187.878 76.57 188.151 76.8044C188.113 78.0188 187.938 79.5166 187.327 80.1003C187.286 80.1384 187.256 80.1862 187.239 80.2392C187.223 80.2921 187.22 80.3485 187.231 80.4029C187.218 80.4666 187.225 80.5329 187.252 80.5922C187.279 80.6515 187.323 80.7008 187.38 80.7331L182.921 88.5416C182.754 88.7547 182.586 88.9677 182.413 89.1808C181.586 90.2359 180.667 91.2162 179.667 92.1103C178.924 92.7729 178.15 93.4973 177.997 93.7678C177.76 94.194 177.166 95.5682 177.417 96.7037C177.743 98.0807 177.876 99.496 177.814 100.909L177.236 111.01C177.043 112.138 176.776 113.252 176.437 114.345H176.35C176.35 114.345 174.198 116.931 170.781 117.541C167.363 118.15 167.489 119.884 168.501 120.127C169.513 120.37 181.793 119.88 181.793 119.88C181.793 119.88 182.258 118.974 182.13 118.148C186.05 117.771 191.481 117.131 191.481 117.131C191.481 117.131 192.225 115.344 191.145 114.564C190.738 114.252 190.436 113.823 190.279 113.335C190.216 113.062 190.145 112.751 190.077 112.425C190.06 112.265 190.06 112.167 190.06 112.167H190.024C189.834 111.215 189.683 110.194 189.77 109.66C190.088 108.243 190.91 100.053 188.884 97.7136C187.964 96.6483 188.089 95.4382 188.498 94.4283C190.929 92.8368 194.33 89.413 196.296 87.3421C196.407 87.4337 196.509 87.5253 196.605 87.6169L196.669 87.6787C196.669 87.6787 203.361 84.3657 203.389 78.5173C203.399 77.0161 203.034 75.536 202.328 74.2115V74.2115ZM180.892 115.468C180.88 115.254 180.888 115.04 180.916 114.828L180.703 114.805C180.826 113.876 181.129 112.836 181.806 112.118C182.97 110.011 183.792 107.733 184.244 105.369L185.473 110.02C185.473 110.02 185.597 110.983 185.631 112.001H185.609C185.609 112.001 183.894 114.449 180.892 115.468Z" fill="url(#paint2_linear_1_25)"/>
<path d="M186.449 55.2283C186.449 55.2283 183.443 56.3106 181.762 58.1152C181.762 58.1152 173.582 61.3621 171.296 61.002C169.01 60.642 168.891 60.039 168.409 59.0846L163.236 49.7101C163.236 49.7101 161.072 41.891 163.236 42.7326C165.401 43.5741 166.006 48.272 166.006 48.272C166.006 48.272 170.097 56.4512 172.621 56.3319L179.471 53.0679C179.471 53.0679 181.035 50.7818 181.757 50.9032C182.48 51.0247 186.449 55.2283 186.449 55.2283Z" fill="#FDB797"/>
<g opacity="0.05">
<path opacity="0.05" d="M186.449 55.2283C186.449 55.2283 183.443 56.3106 181.762 58.1152C181.762 58.1152 173.582 61.3621 171.296 61.002C169.01 60.642 168.891 60.039 168.409 59.0846L163.236 49.7101C163.236 49.7101 161.072 41.891 163.236 42.7326C165.401 43.5741 166.006 48.272 166.006 48.272C166.006 48.272 170.097 56.4512 172.621 56.3319L179.471 53.0679C179.471 53.0679 181.035 50.7818 181.757 50.9032C182.48 51.0247 186.449 55.2283 186.449 55.2283Z" fill="black"/>
</g>
<path d="M181.51 50.7945L179.111 52.6779C179.111 52.6779 180.311 55.8162 180.01 56.9156C179.71 58.015 184.808 55.1898 184.808 55.1898L182.71 50.4813L181.51 50.7945Z" fill="#F9CE43"/>
<g opacity="0.05">
<path opacity="0.05" d="M181.51 50.7945L179.111 52.6779C179.111 52.6779 180.311 55.8162 180.01 56.9156C179.71 58.015 184.808 55.1898 184.808 55.1898L182.71 50.4813L181.51 50.7945Z" fill="black"/>
</g>
<path d="M177.368 48.698C177.368 48.698 182.72 50.443 180.255 53.5088L187.953 49.7804C187.953 49.7804 184.706 50.0211 182.661 45.0931L177.368 48.698Z" fill="#FDB797"/>
<path d="M187.471 80.0939L180.856 92.0015L185.309 109.314C185.309 109.314 185.79 113.164 185.068 113.524H190.12C190.12 113.524 189.146 110.115 189.397 108.954C189.698 107.572 190.48 99.5799 188.545 97.2874C186.611 94.995 189.508 91.9951 189.508 91.9951L195.282 82.8529L187.471 80.0939Z" fill="#FDB797"/>
<g opacity="0.05">
<path opacity="0.05" d="M187.471 80.0939L180.856 92.0015L185.309 109.314C185.309 109.314 185.79 113.164 185.068 113.524H190.12C190.12 113.524 189.218 110.096 189.397 108.954C189.576 107.812 190.48 99.5799 188.545 97.2874C186.611 94.995 189.508 91.9951 189.508 91.9951L195.282 82.8529L187.471 80.0939Z" fill="black"/>
</g>
<path d="M185.437 111.258C185.437 111.258 183.604 113.957 180.409 114.813C177.213 115.67 177.473 117.34 178.451 117.502C179.429 117.664 191.021 116.26 191.021 116.26C191.021 116.26 191.726 114.515 190.701 113.752C189.677 112.99 189.67 111.409 189.67 111.409L185.437 111.258Z" fill="#0D134D"/>
<g opacity="0.1">
<path opacity="0.1" d="M187.834 75.281C187.834 75.281 188.119 79.1927 187.077 80.2196C187.041 80.2537 187.013 80.2959 186.996 80.3428C186.979 80.3897 186.973 80.44 186.98 80.4895C186.986 80.539 187.004 80.5863 187.032 80.6275C187.06 80.6688 187.097 80.7028 187.141 80.7267L190.239 82.3779L193.009 77.0856L187.834 75.281Z" fill="black"/>
</g>
<path d="M187.834 75.1616C187.834 75.1616 188.119 79.0733 187.077 80.1003C187.041 80.1343 187.013 80.1765 186.996 80.2234C186.979 80.2704 186.973 80.3206 186.98 80.3701C186.986 80.4196 187.004 80.4669 187.032 80.5082C187.06 80.5494 187.097 80.5834 187.141 80.6073L190.239 82.2585L193.009 76.9662L187.834 75.1616Z" fill="#E23553"/>
<g opacity="0.1">
<path opacity="0.1" d="M187.834 75.3748C187.834 75.3748 188.119 79.2864 187.077 80.3134C187.041 80.3474 187.013 80.3896 186.996 80.4365C186.979 80.4835 186.973 80.5337 186.98 80.5832C186.986 80.6327 187.004 80.68 187.032 80.7213C187.06 80.7625 187.097 80.7965 187.141 80.8204L190.239 82.4716L193.009 77.1793L187.834 75.3748Z" fill="black"/>
</g>
<path d="M187.953 82.8594C187.953 82.8594 186.165 84.0525 182.413 88.9634C181.629 89.9918 180.756 90.9492 179.804 91.8247C179.098 92.4639 178.363 93.1798 178.216 93.444C177.99 93.8509 177.426 95.2038 177.667 96.3117C177.976 97.6578 178.103 99.0395 178.044 100.419L177.496 110.286C177.496 110.286 176.774 114.737 175.813 115.218L180.745 116.07C180.745 116.07 180.385 112.943 181.828 111.383C181.828 111.383 185.196 105.609 184.354 99.1134C184.354 99.1134 183.994 96.2265 187.241 94.6626C190.488 93.0988 197.106 85.5204 197.106 85.5204L187.953 82.8594Z" fill="#FDB797"/>
<path d="M176.646 113.533C176.646 113.533 174.601 116.06 171.354 116.661C168.107 117.261 168.226 118.947 169.189 119.187C170.152 119.428 181.819 118.947 181.819 118.947C181.819 118.947 182.671 117.264 181.7 116.42C180.728 115.576 180.978 114.014 180.978 114.014L176.646 113.533Z" fill="#0D134D"/>
<g opacity="0.1">
<path opacity="0.1" d="M190.961 76.4847C190.961 76.4847 189.493 81.4148 187.633 82.8508C187.599 82.8766 187.572 82.9112 187.556 82.9511C187.539 82.9909 187.534 83.0344 187.54 83.077C187.547 83.1196 187.564 83.1596 187.592 83.193C187.619 83.2263 187.655 83.2516 187.695 83.2663C189.233 83.8266 194.176 85.7143 195.894 87.4315L195.953 87.4911C195.953 87.4911 206.237 82.2585 200.704 73.3571L190.961 76.4847Z" fill="black"/>
</g>
<path d="M190.961 76.3654C190.961 76.3654 189.493 81.2955 187.633 82.7315C187.599 82.7573 187.572 82.792 187.556 82.8318C187.539 82.8716 187.534 82.9151 187.54 82.9577C187.547 83.0003 187.564 83.0404 187.592 83.0737C187.619 83.107 187.655 83.1323 187.695 83.147C189.233 83.7073 194.176 85.595 195.894 87.3122L195.953 87.3719C195.953 87.3719 206.237 82.1392 200.704 73.2378L190.961 76.3654Z" fill="#E23553"/>
<g opacity="0.1">
<path opacity="0.1" d="M182.516 51.9194C181.752 52.4335 180.916 52.8326 180.036 53.104L180.862 60.4608C180.862 60.4608 178.93 64.7858 184.457 67.807C184.457 67.807 187.812 72.2662 187.44 76.4762C187.44 76.4762 189.24 78.4065 190.444 77.9271C191.647 77.4477 190.563 78.1679 190.804 78.0485C191.044 77.9292 191.524 79.0137 195.254 78.0592C198.985 77.1047 201.646 74.5885 201.52 73.7448C201.395 72.9011 196.605 67.4767 195.418 60.8571C194.232 54.2375 187.148 49.5289 187.148 49.5289C187.148 49.5289 186.913 49.6589 186.508 49.8315C185.124 50.4191 183.788 51.1173 182.516 51.9194V51.9194Z" fill="black"/>
</g>
<g opacity="0.1">
<path opacity="0.1" d="M187.54 82.8956C187.535 82.9473 187.548 82.999 187.576 83.0425C187.604 83.0861 187.646 83.1191 187.695 83.1364C189.02 83.62 192.872 85.088 195.012 86.5836C193.16 85.088 189.221 83.5348 187.54 82.8956Z" fill="black"/>
<path opacity="0.1" d="M200.704 73.2378L200.491 73.3102C205.219 81.5746 196.315 86.5665 195.538 86.982C195.672 87.0928 195.793 87.195 195.904 87.3122L195.964 87.3719C195.964 87.3719 206.237 82.1392 200.704 73.2378Z" fill="black"/>
</g>
<path d="M195.291 77.8078C191.562 78.7708 191.081 77.6885 190.84 77.8078C190.599 77.9271 191.692 77.207 190.48 77.6885C189.267 78.17 187.474 76.244 187.474 76.244C187.491 76.031 187.499 75.8328 187.499 75.6261C187.512 71.6037 184.457 67.5833 184.457 67.5833C178.917 64.5771 180.848 60.2457 180.848 60.2457L180.622 58.2728L180.002 52.891C180.881 52.6181 181.715 52.2175 182.477 51.7022C183.748 50.898 185.081 50.197 186.464 49.6057C186.871 49.431 187.103 49.301 187.103 49.301C187.103 49.301 194.2 53.9882 195.412 60.6079C196.624 67.2275 201.427 72.637 201.546 73.4785C201.665 74.3201 199.019 76.8448 195.291 77.8078Z" fill="#F9CE43"/>
<g opacity="0.1">
<path opacity="0.1" d="M182.78 45.2103L177.488 48.8195C178.217 49.0726 178.911 49.4184 179.552 49.8486C181.355 49.595 182.458 48.3039 183.202 46.7145C182.912 46.25 183.04 45.8346 182.78 45.2103Z" fill="black"/>
</g>
<path d="M178.691 49.7825C181.614 49.7825 183.984 47.413 183.984 44.4902C183.984 41.5673 181.614 39.1979 178.691 39.1979C175.768 39.1979 173.399 41.5673 173.399 44.4902C173.399 47.413 175.768 49.7825 178.691 49.7825Z" fill="#FDB797"/>
<g opacity="0.1">
<path opacity="0.1" d="M196.132 77.207C192.404 78.17 191.922 77.0877 191.681 77.207C191.441 77.3263 192.534 76.6062 191.321 77.0877C190.109 77.5692 188.315 75.6432 188.315 75.6432C188.332 75.4301 188.341 75.232 188.341 75.0253C188.356 71.0092 185.307 66.9825 185.307 66.9825C179.767 63.9763 181.698 59.6449 181.698 59.6449L181.474 57.6698L180.888 52.5757C180.605 52.7033 180.312 52.808 180.012 52.8889L180.622 58.2728L180.85 60.2457C180.85 60.2457 178.932 64.5771 184.459 67.5833C184.459 67.5833 187.508 71.6101 187.493 75.6261C187.493 75.8392 187.493 76.0373 187.467 76.244C187.467 76.244 189.272 78.1615 190.473 77.6885C191.675 77.2155 190.593 77.9293 190.833 77.8078C191.074 77.6864 191.556 78.7708 195.284 77.8078C196.976 77.3702 198.561 76.5939 199.944 75.526C198.771 76.2859 197.484 76.8533 196.132 77.207V77.207Z" fill="black"/>
</g>
<path d="M186.148 56.2765C186.148 56.2765 183.142 57.3588 181.461 59.1634C181.461 59.1634 173.282 62.4103 170.996 62.0503C168.71 61.6902 168.59 61.0873 168.109 60.1328L162.936 50.7583C162.936 50.7583 160.771 42.9392 162.936 43.7808C165.101 44.6223 165.706 49.3202 165.706 49.3202C165.706 49.3202 169.796 57.4994 172.321 57.3801L179.173 54.1118C179.173 54.1118 180.737 51.8257 181.459 51.9472C182.181 52.0686 186.148 56.2765 186.148 56.2765Z" fill="#FDB797"/>
<g opacity="0.1">
<path opacity="0.1" d="M182.088 51.8726C182.088 51.8726 179.593 51.6446 178.87 54.7723C178.148 57.8999 184.41 59.8238 184.41 59.8238L187.778 55.1366L182.088 51.8726Z" fill="black"/>
</g>
<path d="M182.209 51.8726C182.209 51.8726 179.714 51.6446 178.992 54.7723C178.27 57.8999 184.531 59.8238 184.531 59.8238L187.9 55.1366L182.209 51.8726Z" fill="#F9CE43"/>
<g opacity="0.1">
<path opacity="0.1" d="M181.19 52.4287C180.813 52.619 180.418 52.7717 180.01 52.8847L180.031 53.0658C180.429 52.8741 180.816 52.6615 181.19 52.4287V52.4287Z" fill="black"/>
<path opacity="0.1" d="M201.546 73.4786C201.427 72.6263 196.614 67.2233 195.412 60.6079C194.21 53.9925 187.103 49.301 187.103 49.301C187.103 49.301 186.868 49.431 186.464 49.6057C185.383 50.0701 184.331 50.6002 183.315 51.193C183.989 50.8379 184.678 50.5098 185.381 50.2086C185.788 50.0339 186.021 49.904 186.021 49.904C186.021 49.904 193.117 54.5912 194.33 61.2108C195.542 67.8305 200.344 73.2399 200.464 74.0815C200.54 74.612 199.515 75.8115 197.813 76.8683C200.15 75.7071 201.637 74.1135 201.546 73.4786Z" fill="black"/>
</g>
<path opacity="0.1" d="M183.639 51.9216C183.639 51.9216 186.749 53.462 187.335 56.4235" stroke="black" stroke-miterlimit="10"/>
<g opacity="0.1">
<path opacity="0.1" d="M176.033 44.1919C176.529 44.3027 177.083 44.4582 177.328 44.9035C177.505 45.2273 177.473 45.6343 177.645 45.9688C178.088 46.804 179.388 46.5163 180.202 47.0064C181.693 47.9054 180.72 50.7093 182.205 51.6126C182.484 51.7831 182.814 51.8512 183.102 52.0068C184.357 52.6928 184.18 54.508 183.954 55.9206C183.728 57.3332 183.997 59.2656 185.413 59.4658C186.193 59.5745 187.069 59.0589 187.725 59.4914C188.068 59.7172 188.224 60.1306 188.511 60.431C188.709 60.628 188.96 60.7631 189.233 60.8195C189.506 60.8759 189.79 60.8512 190.049 60.7484C190.531 60.5482 190.878 60.0901 191.379 59.9431C192.184 59.7066 193.083 60.3585 193.859 60.0581C194.634 59.7577 194.811 58.637 194.611 57.7912C194.411 56.9454 194.002 56.0868 194.215 55.2346C194.391 54.5315 194.967 53.9946 195.218 53.3171C195.955 51.3165 193.669 49.2498 194.091 47.1598C194.274 46.2543 194.956 45.4553 194.943 44.5413C194.922 43.476 193.978 42.6686 192.996 42.2765C192.014 41.8845 190.936 41.7737 189.975 41.337C187.868 40.3782 186.715 38.0602 184.789 36.7733C183.926 36.2103 182.954 35.8371 181.936 35.6782C180.623 35.4668 179.279 35.538 177.996 35.887C176.712 36.236 175.518 36.8549 174.492 37.7022C174.303 37.8556 174.109 38.0005 173.913 38.1411C173.09 38.7355 172.208 39.3215 171.707 40.2035C169.879 43.3865 174.079 43.7509 176.033 44.1919Z" fill="black"/>
</g>
<path d="M176.182 43.8915C176.678 44.0023 177.232 44.1578 177.477 44.6031C177.654 44.9269 177.622 45.3339 177.794 45.6684C178.238 46.5036 179.537 46.2159 180.351 46.706C181.842 47.6051 180.869 50.4089 182.354 51.3122C182.633 51.4827 182.963 51.5508 183.251 51.7064C184.506 52.3924 184.329 54.2077 184.103 55.6202C183.877 57.0328 184.146 58.9652 185.562 59.1654C186.342 59.2741 187.218 58.7585 187.874 59.191C188.217 59.4169 188.373 59.8302 188.66 60.1306C188.858 60.3277 189.109 60.4627 189.382 60.5191C189.655 60.5755 189.939 60.5508 190.199 60.448C190.68 60.2478 191.027 59.7897 191.528 59.6427C192.333 59.4062 193.232 60.0582 194.008 59.7577C194.783 59.4573 194.96 58.3367 194.76 57.4908C194.56 56.645 194.151 55.7864 194.364 54.9342C194.541 54.2311 195.116 53.6942 195.367 53.0167C196.104 51.0161 193.818 48.9494 194.24 46.8594C194.423 45.9539 195.105 45.1549 195.092 44.2409C195.071 43.1756 194.127 42.3682 193.145 41.9761C192.163 41.5841 191.085 41.4733 190.124 41.0366C188.017 40.0778 186.864 37.7598 184.938 36.4729C184.156 35.9592 183.28 35.6045 182.36 35.4289C181.006 35.1692 179.612 35.2118 178.276 35.5536C176.941 35.8954 175.697 36.528 174.635 37.4061C174.447 37.5574 174.253 37.7022 174.062 37.8322C173.239 38.4266 172.357 39.0125 171.857 39.8946C170.029 43.0862 174.23 43.4526 176.182 43.8915Z" fill="#00BAFC"/>
<path d="M133.302 77.1645H96.2305V70.1784C105.287 65.945 119.223 63.5673 133.302 77.1645Z" fill="#00BAFC"/>
<g opacity="0.1">
<path opacity="0.1" d="M162.065 76.1651V77.1644H115.832V76.9513C115.832 76.9513 138.582 54.8 162.065 76.1651Z" fill="black"/>
</g>
<path d="M162.491 76.1651V77.1644H116.258V76.9513C116.258 76.9513 139.008 54.8 162.491 76.1651Z" fill="#00BAFC"/>
<path d="M103.9 49.2542C105.783 49.2542 107.309 47.728 107.309 45.8453C107.309 43.9626 105.783 42.4364 103.9 42.4364C102.018 42.4364 100.492 43.9626 100.492 45.8453C100.492 47.728 102.018 49.2542 103.9 49.2542Z" fill="#00BAFC"/>
<path d="M132.923 43.2673C132.533 43.2673 132.098 43.2673 131.802 43.2908C131.67 43.2981 131.539 43.3246 131.414 43.3696L129.41 44.0897C131.029 44.1302 132.718 44.1174 134.378 44.1047L143.684 44.0322C144.635 44.0322 145.632 44.0152 146.422 43.9598C146.953 43.9214 147.342 43.866 147.832 43.8234C149.594 43.6658 152.162 43.6956 154.456 43.7041C156.751 43.7126 159.521 43.653 160.328 43.4229H155.402C154.872 43.4229 154.314 43.4229 153.845 43.3973C153.297 43.3653 152.963 43.3057 152.481 43.2631C151.684 43.1949 150.585 43.1864 149.562 43.1821C143.948 43.1587 138.405 43.2908 132.923 43.2673Z" fill="#F4F4F4"/>
<path d="M138.437 47.3963C138.351 47.3963 138.258 47.3963 138.194 47.3963C138.165 47.3978 138.136 47.4035 138.109 47.4133L137.682 47.5689C138.034 47.5689 138.398 47.5689 138.758 47.5689L140.774 47.554C140.987 47.554 141.2 47.554 141.366 47.5391C141.481 47.5391 141.566 47.5177 141.671 47.5092C142.052 47.4751 142.608 47.4815 143.107 47.4837C143.534 47.498 143.962 47.4773 144.385 47.4219H143.32C143.205 47.4219 143.083 47.4219 142.983 47.4219C142.883 47.4219 142.792 47.4027 142.687 47.392C142.515 47.3771 142.276 47.375 142.048 47.375C140.834 47.375 139.632 47.4027 138.437 47.3963Z" fill="#F4F4F4"/>
<path d="M124.162 53.3619C124.077 53.3619 123.983 53.3619 123.919 53.3619C123.89 53.3633 123.861 53.3691 123.834 53.3789L123.408 53.5345C123.759 53.5345 124.124 53.5345 124.484 53.5345L126.499 53.5196C126.712 53.5196 126.925 53.5196 127.092 53.5046C127.207 53.5046 127.292 53.4833 127.396 53.4748C127.778 53.4407 128.334 53.4471 128.832 53.4492C129.259 53.4636 129.687 53.4429 130.111 53.3875H129.045C128.93 53.3875 128.809 53.3875 128.709 53.3875C128.608 53.3875 128.517 53.3683 128.412 53.3576C128.24 53.3427 128.001 53.3406 127.773 53.3406C126.559 53.3406 125.357 53.3683 124.162 53.3619Z" fill="#F4F4F4"/>
<path d="M116.153 75.2746H114.551C114.551 75.2746 114.05 57.7529 116.153 52.3456H116.554C116.554 52.3456 115.152 72.1704 116.153 75.2746Z" fill="#00BAFC"/>
<path d="M115.052 51.4444C115.052 51.4444 113.75 55.0493 114.351 56.6514C114.351 56.6514 115.252 53.3469 116.302 52.8463C117.353 52.3456 118.454 56.6514 118.454 56.6514C118.454 56.6514 119.055 53.9478 117.954 51.7512C117.954 51.7512 120.157 52.9528 121.258 55.2559C121.258 55.2559 121.458 53.7645 118.855 50.6497C118.855 50.6497 121.158 51.2505 122.66 52.6524C122.66 52.6524 123.161 51.5509 120.056 49.7484C120.056 49.7484 120.457 48.4467 122.86 49.0475C122.86 49.0475 122.86 47.3431 119.055 47.6456C119.055 47.6456 119.055 46.5441 121.558 46.7444C121.558 46.7444 121.558 45.3425 118.655 45.8431C118.655 45.8431 119.255 44.9419 119.656 44.7417C119.155 44.6953 118.655 44.8382 118.254 45.1422C118.254 45.1422 118.354 43.3397 116.852 42.6388L116.652 45.1422C116.652 45.1422 114.969 43.1587 115.35 43.54C115.45 43.6402 115.751 44.8418 115.65 45.4426C115.65 45.4426 113.946 44.0407 111.845 45.5427C111.845 45.5427 114.449 45.743 114.849 46.6442C114.849 46.6442 112.646 46.2437 112.146 46.5441C112.146 46.5441 113.85 47.1449 113.748 47.5455C113.748 47.5455 110.744 47.5455 110.339 48.647C110.339 48.647 113.443 49.0475 113.643 49.3479C113.643 49.3479 110.039 51.9514 109.838 52.6524C109.838 52.6524 113.543 50.4494 114.144 50.4494C114.745 50.4494 111.44 53.6452 111.641 54.4548C111.649 54.4484 114.361 51.2441 115.052 51.4444Z" fill="#00BAFC"/>
<path d="M135.914 74.6184H137.137C137.137 74.6184 137.521 61.2321 135.914 57.101H135.607C135.607 57.101 136.681 72.2428 135.914 74.6184Z" fill="#00BAFC"/>
<path d="M136.756 56.4129C136.756 56.4129 137.751 59.1677 137.29 60.3906C137.29 60.3906 136.602 57.8659 135.799 57.4845C134.996 57.1032 134.154 60.3906 134.154 60.3906C134.154 60.3906 133.696 58.3261 134.538 56.6429C133.461 57.2803 132.586 58.2086 132.013 59.3211C132.013 59.3211 131.86 58.1727 133.85 55.8014C133.85 55.8014 132.09 56.2595 130.944 57.3311C130.944 57.3311 130.56 56.4896 132.934 55.1132C132.934 55.1132 132.627 54.1182 130.792 54.5784C130.792 54.5784 130.792 53.2788 133.698 53.5132C133.698 53.5132 133.698 52.6716 131.781 52.825C131.781 52.825 131.781 51.7597 133.999 52.1368C133.999 52.1368 133.541 51.4487 133.234 51.2953C133.615 51.2616 133.995 51.371 134.299 51.6021C134.299 51.6021 134.222 50.2257 135.364 49.6846L135.518 51.6021C135.518 51.6021 136.796 50.0872 136.513 50.3791C136.33 50.8405 136.251 51.3368 136.283 51.8322C136.283 51.8322 137.582 50.7669 139.189 51.9089C139.189 51.9089 137.199 52.0623 136.894 52.7504C136.894 52.7504 138.577 52.4436 138.959 52.6737C138.959 52.6737 137.659 53.1318 137.736 53.4386C137.736 53.4386 140.03 53.4386 140.337 54.2802C140.337 54.2802 137.966 54.587 137.812 54.8149C137.812 54.8149 140.567 56.8049 140.719 57.3396C140.719 57.3396 137.889 55.6565 137.429 55.6565C136.969 55.6565 139.493 58.1045 139.346 58.716C139.357 58.7075 137.293 56.2637 136.756 56.4129Z" fill="#00BAFC"/>
<path d="M150.557 72.0021H151.316C151.316 72.0021 151.552 63.7121 150.557 61.1533H150.368C150.368 61.1533 151.03 70.5384 150.557 72.0021Z" fill="#00BAFC"/>
<path d="M151.079 60.7272C151.079 60.7272 151.695 62.4316 151.412 63.1901C151.412 63.1901 150.986 61.6263 150.487 61.3898C149.989 61.1533 149.469 63.1901 149.469 63.1901C149.469 63.1901 149.185 61.9118 149.705 60.8678C149.038 61.2622 148.496 61.8367 148.141 62.5254C148.141 62.5254 148.048 61.8138 149.279 60.3458C148.618 60.5297 148.004 60.853 147.479 61.2939C147.479 61.2939 147.242 60.7719 148.71 59.9197C148.71 59.9197 148.521 59.304 147.383 59.5873C147.383 59.5873 147.383 58.782 149.183 58.9247C149.183 58.9247 149.183 58.4027 147.999 58.4986C147.999 58.4986 147.999 57.836 149.373 58.0725C149.246 57.8729 149.086 57.6964 148.9 57.5505C149.137 57.5288 149.373 57.5964 149.563 57.7401C149.563 57.7401 149.516 56.8879 150.225 56.5555L150.319 57.7401C150.319 57.7401 151.116 56.8027 150.935 56.9817C150.821 57.2671 150.772 57.5742 150.792 57.8807C151.055 57.6889 151.374 57.5894 151.7 57.5979C152.026 57.6064 152.339 57.7223 152.592 57.9276C152.592 57.9276 151.361 58.0214 151.171 58.4496C151.171 58.4496 152.213 58.26 152.449 58.4027C152.449 58.4027 151.644 58.6861 151.691 58.8757C151.691 58.8757 153.112 58.8757 153.302 59.3977C153.302 59.3977 151.834 59.5873 151.738 59.7301C151.738 59.7301 153.442 60.9615 153.538 61.2939C153.538 61.2939 151.785 60.2521 151.501 60.2521C151.218 60.2521 152.78 61.769 152.686 62.1461C152.69 62.1482 151.41 60.6313 151.079 60.7272Z" fill="#00BAFC"/>
<path d="M122.86 62.6276L122.7 61.7754C122.7 61.7128 122.687 61.6508 122.662 61.5933C122.637 61.5358 122.601 61.484 122.556 61.4409L121.816 61.0787C121.762 61.0147 121.717 60.9429 121.684 60.8657L121.697 60.8465C121.738 60.7959 121.767 60.737 121.782 60.6739C121.784 60.6576 121.784 60.6412 121.782 60.6249H121.793C121.861 60.634 121.93 60.6172 121.987 60.5777C122.043 60.5383 122.083 60.4791 122.097 60.4119V60.3927C122.084 60.4503 122.053 60.5021 122.008 60.5405C121.963 60.5788 121.907 60.6017 121.848 60.6058C121.951 60.5368 122.035 60.4436 122.094 60.3344C122.152 60.2251 122.183 60.1032 122.183 59.9794C122.183 59.9794 122.183 59.9581 122.183 59.9474C122.215 59.9274 122.243 59.9008 122.265 59.8692C122.287 59.8376 122.302 59.8018 122.308 59.7642V59.745C122.299 59.7807 122.283 59.8142 122.261 59.8435C122.239 59.8728 122.211 59.8973 122.178 59.9155C122.173 59.8425 122.158 59.7708 122.132 59.7024H122.151C122.224 59.7024 122.294 59.6734 122.345 59.6219C122.397 59.5704 122.426 59.5005 122.426 59.4276C122.426 59.4276 122.426 59.4148 122.426 59.4084C122.421 59.4775 122.39 59.5423 122.339 59.5897C122.289 59.6371 122.222 59.6637 122.153 59.664H122.119V59.6513C122.201 59.6267 122.274 59.5794 122.329 59.5149C122.385 59.4504 122.422 59.3713 122.434 59.2869C122.434 59.2869 122.434 59.2742 122.434 59.2678C122.43 59.3211 122.411 59.3723 122.379 59.4148C122.382 59.3465 122.36 59.2793 122.317 59.2264C122.274 59.1734 122.213 59.1385 122.145 59.1284C122.077 59.1183 122.008 59.1337 121.952 59.1717C121.895 59.2097 121.854 59.2675 121.838 59.3338L121.789 59.3061C121.804 59.2512 121.836 59.2025 121.88 59.1666C121.924 59.1307 121.979 59.1095 122.036 59.1058H122.017C121.959 59.1054 121.903 59.123 121.856 59.1563C121.809 59.1896 121.773 59.2367 121.754 59.2912C121.59 59.2146 121.403 59.2001 121.228 59.2502C121.054 59.3003 120.903 59.4117 120.804 59.5639C120.747 59.6065 120.672 59.6683 120.674 59.7216C120.65 59.7463 120.627 59.7734 120.608 59.8025C120.527 59.9804 120.498 60.1775 120.523 60.3714C120.535 60.4678 120.523 60.5655 120.489 60.6564C120.455 60.7473 120.399 60.8286 120.327 60.8934C120.359 60.9066 120.393 60.9134 120.427 60.9134C120.462 60.9134 120.496 60.9066 120.527 60.8934C120.591 60.8666 120.65 60.8315 120.704 60.789C120.755 60.7584 120.797 60.7169 120.83 60.6675V60.6569C120.865 60.6806 120.903 60.7006 120.943 60.7165C120.958 60.8444 120.962 60.9914 120.904 61.0404L120.915 61.0169C120.778 61.1203 120.607 61.1689 120.436 61.1533C120.332 61.1591 120.232 61.1916 120.145 61.2477C120.058 61.3037 119.987 61.3813 119.939 61.4729L119.707 62.4423V62.4593V62.4764C119.711 62.4894 119.718 62.5013 119.727 62.5107C119.737 62.5201 119.749 62.5266 119.762 62.5296L119.835 62.5488C119.846 62.7144 119.829 62.8807 119.786 63.041C119.737 63.2796 119.709 63.5219 119.703 63.7654C119.72 63.8868 119.75 64.5196 119.765 64.82C119.739 64.9226 119.718 65.0264 119.703 65.131L119.36 67.1892C119.36 67.1892 119.104 68.8361 119.117 69.3346L119.072 69.6223C119.072 69.6223 118.375 70.4958 118.58 70.6193C118.784 70.7429 119.1 70.7962 119.4 70.3317C119.441 70.2223 119.507 70.1238 119.592 70.0441C119.626 70.0146 119.653 69.9773 119.669 69.9354C119.686 69.8935 119.692 69.8482 119.688 69.8033L119.667 69.5903L119.703 69.6031H119.724C119.724 69.6031 120.067 68.476 120.029 67.6856C120.029 67.6856 120.668 65.4229 121.147 65.0671V65.0522L121.192 65.0309L121.294 67.2232L121.19 69.6393L121.166 69.7842C121.166 69.7842 120.47 70.6577 120.674 70.7813C120.879 70.9048 121.194 70.9581 121.495 70.4936C121.535 70.3842 121.601 70.2857 121.686 70.206C121.72 70.1765 121.747 70.1392 121.764 70.0973C121.78 70.0554 121.787 70.0101 121.782 69.9653L121.75 69.6457C121.87 69.2387 122.176 68.0669 122.051 67.3873L122.264 65.9428C122.477 65.702 122.449 65.0906 122.449 65.0906C122.617 64.739 122.662 63.3606 122.662 63.3606L122.705 62.6788C122.737 62.6761 122.769 62.6761 122.801 62.6788H122.822H122.835V62.666C122.841 62.6606 122.846 62.6541 122.85 62.6468H122.862V62.6298L122.86 62.6276ZM122.264 64.0125C122.245 63.9656 122.223 63.9188 122.2 63.8719H122.183V63.8548C122.182 63.8492 122.182 63.8435 122.183 63.8378V63.8208C122.193 63.7979 122.201 63.7744 122.208 63.7505C122.236 63.7064 122.25 63.6553 122.249 63.6034C122.274 63.7383 122.279 63.8762 122.264 64.0125V64.0125ZM122.2 63.4287L122.157 62.9728L122.17 62.9366L122.227 63.5161L122.2 63.4287ZM120.18 63.4905C120.165 63.5073 120.154 63.527 120.148 63.5483C120.141 63.5695 120.139 63.592 120.142 63.6141C120.142 63.6141 120.142 63.6141 120.142 63.629C120.142 63.6751 120.148 63.721 120.161 63.7654L120.095 64.0509V63.5054C120.139 63.4479 120.177 63.3866 120.21 63.3222C120.217 63.38 120.206 63.4385 120.18 63.4905V63.4905Z" fill="url(#paint3_linear_1_25)"/>
<path d="M120.61 59.9708C120.532 60.142 120.503 60.3317 120.527 60.5184C120.538 60.6113 120.527 60.7055 120.494 60.793C120.461 60.8805 120.407 60.9588 120.338 61.0212C120.368 61.034 120.401 61.0406 120.435 61.0406C120.468 61.0406 120.501 61.034 120.532 61.0212C120.593 60.9955 120.65 60.9619 120.702 60.921C120.751 60.8915 120.792 60.8515 120.823 60.8039C120.853 60.7302 120.862 60.6501 120.851 60.5716C120.851 60.4324 120.864 60.2934 120.887 60.1562C120.9 60.071 120.981 59.8387 120.887 59.794C120.794 59.7493 120.651 59.9069 120.61 59.9708Z" fill="#72351C"/>
<path d="M119.202 69.0278L119.136 69.4539C119.136 69.4539 118.465 70.3061 118.663 70.4148C118.861 70.5234 119.164 70.5852 119.453 70.1378C119.492 70.0325 119.555 69.9377 119.637 69.8608V69.8608C119.669 69.8323 119.695 69.7963 119.711 69.7559C119.727 69.7155 119.733 69.6718 119.728 69.6286L119.662 68.9788L119.202 69.0278Z" fill="#333333"/>
<path d="M121.222 69.1961L121.156 69.6222C121.156 69.6222 120.485 70.4744 120.683 70.5831C120.881 70.6917 121.183 70.7535 121.473 70.3061C121.512 70.2008 121.575 70.106 121.656 70.0291V70.0291C121.689 70.0006 121.715 69.9646 121.731 69.9242C121.747 69.8838 121.753 69.8401 121.748 69.7969L121.682 69.1471L121.222 69.1961Z" fill="#333333"/>
<path d="M120.176 64.102C120.176 64.102 119.86 64.33 119.75 65.1225L119.419 67.1061C119.419 67.1061 119.14 68.9043 119.191 69.2494L119.75 69.4412C119.75 69.4412 120.08 68.3546 120.044 67.5982C120.044 67.5982 120.715 65.2078 121.186 65.0416L121.286 67.153L121.179 69.5285L121.657 69.6244C121.657 69.6244 122.14 68.1117 121.987 67.3106L122.236 65.6062C122.236 65.6062 122.522 64.6964 122.125 63.9017L120.176 64.102Z" fill="#4D8AF0"/>
<g opacity="0.1">
<path opacity="0.1" d="M121.137 65.0736V65.0374C120.666 65.2057 119.995 67.594 119.995 67.594C119.983 68.2123 119.886 68.826 119.707 69.4177L119.767 69.439C119.767 69.439 120.097 68.3525 120.061 67.5961C120.059 67.5983 120.672 65.4251 121.137 65.0736Z" fill="black"/>
<path opacity="0.1" d="M122.144 63.9124H122.08C122.31 64.4464 122.347 65.0432 122.187 65.6019L121.938 67.3063C122.085 68.0648 121.656 69.4603 121.612 69.6073L121.674 69.6201C121.674 69.6201 122.157 68.1074 122.004 67.3063L122.253 65.6019C122.253 65.6019 122.541 64.6964 122.144 63.9124Z" fill="black"/>
</g>
<path d="M119.748 62.5488C119.747 62.5651 119.752 62.5811 119.763 62.5939C119.773 62.6067 119.787 62.6156 119.803 62.6191C119.959 62.6583 120.104 62.731 120.229 62.8322C120.463 63.0154 119.98 62.4657 119.98 62.4657L119.818 62.5019L119.752 62.5616L119.748 62.5488Z" fill="#F55F44"/>
<path opacity="0.1" d="M119.748 62.5488C119.747 62.5651 119.752 62.5811 119.763 62.5939C119.773 62.6067 119.787 62.6156 119.803 62.6191C119.959 62.6583 120.104 62.731 120.229 62.8322C120.463 63.0154 119.98 62.4657 119.98 62.4657L119.818 62.5019L119.752 62.5616L119.748 62.5488Z" fill="black"/>
<path d="M122.053 63.0345C122.25 62.8946 122.478 62.8047 122.717 62.7725C122.734 62.7725 122.75 62.766 122.761 62.7544C122.773 62.7428 122.779 62.7271 122.779 62.7107V62.7107C122.779 62.7107 122.221 62.4912 122.053 63.0345Z" fill="#F55F44"/>
<path opacity="0.1" d="M122.779 62.7086C122.779 62.7086 122.221 62.4955 122.053 63.0324C122.053 63.0324 122.464 62.7171 122.749 62.7682" fill="black"/>
<path d="M121.405 60.8678C121.806 60.8678 122.132 60.5426 122.132 60.1413C122.132 59.7401 121.806 59.4148 121.405 59.4148C121.004 59.4148 120.679 59.7401 120.679 60.1413C120.679 60.5426 121.004 60.8678 121.405 60.8678Z" fill="#72351C"/>
<path d="M120.904 60.6505C120.904 60.6505 121.007 61.0766 120.904 61.164C120.802 61.2513 120.595 61.4132 120.751 61.5389C120.907 61.6646 121.463 61.8777 121.648 61.7733C121.833 61.6689 122.044 61.7009 121.993 61.4878C121.942 61.2748 121.537 61.3195 121.531 60.2606L120.904 60.6505Z" fill="#FDB797"/>
<path opacity="0.1" d="M119.875 62.421C119.891 62.6521 119.876 62.8842 119.831 63.1113C119.784 63.3408 119.756 63.5739 119.75 63.808C119.771 63.9614 119.816 64.9756 119.816 64.9756C119.816 64.9756 119.735 65.864 120.167 65.783C120.6 65.7021 120.101 64.7689 120.101 64.7689L120.122 63.5566C120.24 63.3973 120.313 63.2099 120.336 63.0133C120.368 62.7214 119.875 62.421 119.875 62.421Z" fill="black"/>
<path d="M119.869 62.421C119.884 62.6521 119.869 62.8842 119.824 63.1113C119.777 63.3408 119.75 63.5739 119.743 63.808C119.765 63.9614 119.809 64.9756 119.809 64.9756C119.809 64.9756 119.728 65.864 120.161 65.783C120.593 65.7021 120.095 64.7689 120.095 64.7689L120.116 63.5566C120.233 63.3973 120.307 63.2099 120.329 63.0133C120.359 62.7214 119.869 62.421 119.869 62.421Z" fill="#FDB797"/>
<path opacity="0.1" d="M122.636 62.4871L122.577 63.4352C122.577 63.4352 122.541 64.7646 122.379 65.1013C122.379 65.1013 122.423 66.0345 121.989 66.011C121.554 65.9876 122.061 64.9905 122.061 64.9905C122.061 64.9905 122.293 63.9529 122.174 63.6248L122.061 62.4871H122.636Z" fill="black"/>
<path d="M122.643 62.4871L122.583 63.4352C122.583 63.4352 122.547 64.7646 122.385 65.1013C122.385 65.1013 122.43 66.0345 121.995 66.011C121.561 65.9876 122.068 64.9905 122.068 64.9905C122.068 64.9905 122.3 63.9529 122.181 63.6248L122.068 62.4871H122.643Z" fill="#FDB797"/>
<path opacity="0.1" d="M121.235 61.5688C121.235 61.5688 121.586 61.7307 121.778 61.2492L122.492 61.5986C122.536 61.6403 122.57 61.6906 122.594 61.7462C122.618 61.8019 122.63 61.8619 122.63 61.9224L122.784 62.7448C122.784 62.7448 122.262 62.568 122.1 63.0538L122.144 63.5161C122.178 63.6303 122.17 63.7527 122.121 63.8612C122.117 63.871 122.114 63.8815 122.114 63.8921C122.114 63.9028 122.117 63.9133 122.121 63.923C122.132 63.9567 122.134 63.9924 122.129 64.0272C122.123 64.0621 122.109 64.0951 122.089 64.1237C122.068 64.1523 122.041 64.1757 122.009 64.1919C121.978 64.2081 121.943 64.2167 121.908 64.217C121.716 64.2193 121.525 64.2342 121.335 64.2618C121.181 64.3065 120.717 64.1744 120.564 64.2618C120.41 64.3491 120.086 64.1957 120.086 64.1957L120.174 63.8208C120.174 63.8208 120.114 63.6375 120.189 63.5715C120.263 63.5054 120.218 62.9323 120.152 62.7704C120.152 62.7704 119.888 62.5211 119.726 62.5573L119.939 61.6092C119.985 61.5208 120.053 61.4459 120.137 61.3917C120.221 61.3375 120.317 61.3061 120.416 61.3003C120.582 61.3151 120.746 61.268 120.879 61.1682C120.879 61.1682 120.719 61.5176 121.235 61.5688Z" fill="black"/>
<path opacity="0.1" d="M121.271 61.5516C121.367 61.5772 121.622 61.6049 121.776 61.2193L122.49 61.5687C122.533 61.6104 122.568 61.6607 122.592 61.7163C122.616 61.772 122.628 61.832 122.628 61.8925L122.781 62.7149C122.781 62.7149 122.259 62.5381 122.098 63.0239L122.142 63.4862L122.172 63.5778C122.185 63.617 122.188 63.6586 122.182 63.6993C122.176 63.74 122.16 63.7787 122.136 63.8122C122.126 63.8236 122.119 63.8377 122.116 63.8527C122.114 63.8677 122.115 63.8832 122.121 63.8974C122.132 63.9311 122.134 63.9667 122.129 64.0016C122.123 64.0365 122.109 64.0695 122.089 64.0981C122.068 64.1267 122.041 64.15 122.009 64.1662C121.978 64.1824 121.943 64.1911 121.908 64.1914C121.716 64.1936 121.525 64.2086 121.335 64.2362C121.181 64.2809 120.717 64.1488 120.564 64.2362C120.41 64.3235 120.086 64.1701 120.086 64.1701L120.174 63.7951C120.174 63.7951 120.114 63.6119 120.189 63.5459C120.263 63.4798 120.218 62.9067 120.152 62.7448C120.152 62.7448 119.888 62.4955 119.726 62.5317L119.939 61.5836C119.985 61.4952 120.053 61.4202 120.137 61.3661C120.221 61.3119 120.317 61.2804 120.416 61.2747C120.582 61.2895 120.746 61.2424 120.879 61.1426C120.879 61.1426 120.706 61.4579 121.16 61.5261L121.271 61.5516Z" fill="black"/>
<path d="M121.271 61.5666C121.367 61.5922 121.622 61.6199 121.776 61.2343L122.49 61.5837C122.533 61.6254 122.568 61.6757 122.592 61.7313C122.616 61.787 122.628 61.847 122.628 61.9075L122.781 62.7299C122.781 62.7299 122.259 62.5531 122.097 63.0389L122.142 63.5012C122.176 63.6154 122.168 63.7378 122.119 63.8463C122.115 63.8561 122.112 63.8666 122.112 63.8772C122.112 63.8879 122.115 63.8984 122.119 63.9081C122.129 63.9418 122.132 63.9775 122.126 64.0123C122.121 64.0472 122.107 64.0802 122.086 64.1088C122.066 64.1374 122.039 64.1608 122.007 64.177C121.976 64.1932 121.941 64.2018 121.906 64.2022C121.714 64.2044 121.522 64.2193 121.333 64.2469C121.179 64.2916 120.715 64.1595 120.561 64.2469C120.408 64.3342 120.084 64.1808 120.084 64.1808L120.171 63.8059C120.171 63.8059 120.112 63.6226 120.186 63.5566C120.261 63.4905 120.216 62.9174 120.15 62.7555C120.15 62.7555 119.886 62.5062 119.724 62.5424L119.937 61.5943C119.983 61.5059 120.051 61.431 120.135 61.3768C120.219 61.3226 120.315 61.2912 120.414 61.2854C120.58 61.3002 120.744 61.2531 120.877 61.1533C120.877 61.1533 120.704 61.4686 121.158 61.5368L121.271 61.5666Z" fill="#F55F44"/>
<path opacity="0.1" d="M121.541 60.299L120.917 60.6888C120.933 60.7592 120.945 60.8303 120.953 60.9019C121.025 60.9302 121.1 60.9447 121.177 60.9445C121.33 60.9338 121.473 60.8688 121.582 60.7613C121.554 60.6088 121.54 60.454 121.541 60.299V60.299Z" fill="black"/>
<path d="M121.164 60.8977C121.497 60.8977 121.767 60.6277 121.767 60.2947C121.767 59.9617 121.497 59.6918 121.164 59.6918C120.831 59.6918 120.561 59.9617 120.561 60.2947C120.561 60.6277 120.831 60.8977 121.164 60.8977Z" fill="#FDB797"/>
<path d="M122.053 59.8323C122.199 59.8323 122.317 59.714 122.317 59.5681C122.317 59.4222 122.199 59.304 122.053 59.304C121.907 59.304 121.789 59.4222 121.789 59.5681C121.789 59.714 121.907 59.8323 122.053 59.8323Z" fill="#72351C"/>
<path d="M122.104 59.8473C122.037 59.8475 121.973 59.8223 121.924 59.7768C121.875 59.7314 121.845 59.669 121.84 59.6023C121.84 59.6023 121.84 59.6151 121.84 59.6215C121.84 59.6915 121.868 59.7587 121.917 59.8083C121.967 59.8578 122.034 59.8857 122.104 59.8857C122.174 59.8857 122.241 59.8578 122.291 59.8083C122.34 59.7587 122.368 59.6915 122.368 59.6215C122.368 59.6215 122.368 59.6087 122.368 59.6023C122.363 59.669 122.333 59.7314 122.284 59.7768C122.235 59.8223 122.171 59.8475 122.104 59.8473V59.8473Z" fill="#72351C"/>
<path d="M121.953 60.0987C121.887 60.0862 121.829 60.0494 121.789 59.9957C121.75 59.9419 121.732 59.8752 121.74 59.809V59.826C121.727 59.8949 121.742 59.9661 121.782 60.0238C121.822 60.0816 121.883 60.1212 121.952 60.1339C122.02 60.1466 122.092 60.1314 122.149 60.0916C122.207 60.0519 122.247 59.9908 122.259 59.9219V59.9027C122.243 59.9685 122.202 60.0255 122.145 60.062C122.088 60.0985 122.019 60.1116 121.953 60.0987Z" fill="#72351C"/>
<path d="M121.748 60.7379C121.683 60.7254 121.624 60.6886 121.585 60.6348C121.545 60.5811 121.527 60.5144 121.535 60.4481V60.4652C121.522 60.5341 121.538 60.6053 121.577 60.663C121.617 60.7207 121.678 60.7603 121.747 60.773C121.816 60.7857 121.887 60.7706 121.945 60.7308C122.003 60.691 122.042 60.63 122.055 60.561V60.5419C122.039 60.6076 121.998 60.6647 121.941 60.7012C121.884 60.7376 121.815 60.7508 121.748 60.7379V60.7379Z" fill="#72351C"/>
<path d="M122.104 59.7066C122.037 59.7068 121.972 59.6813 121.923 59.6354C121.874 59.5894 121.844 59.5265 121.84 59.4595C121.84 59.4595 121.84 59.4723 121.84 59.4786C121.84 59.5487 121.868 59.6159 121.917 59.6655C121.967 59.715 122.034 59.7428 122.104 59.7428C122.174 59.7428 122.241 59.715 122.291 59.6655C122.34 59.6159 122.368 59.5487 122.368 59.4786C122.368 59.4786 122.368 59.4659 122.368 59.4595C122.364 59.5265 122.334 59.5894 122.285 59.6354C122.236 59.6813 122.171 59.7068 122.104 59.7066V59.7066Z" fill="#72351C"/>
<path d="M121.735 59.5639C121.736 59.4967 121.762 59.4322 121.808 59.3836C121.854 59.3349 121.918 59.3057 121.985 59.3019H121.965C121.895 59.3019 121.828 59.3297 121.779 59.3793C121.729 59.4288 121.701 59.496 121.701 59.5661C121.701 59.6361 121.729 59.7033 121.779 59.7529C121.828 59.8024 121.895 59.8303 121.965 59.8303H121.985C121.917 59.8264 121.853 59.7966 121.807 59.747C121.76 59.6974 121.735 59.6319 121.735 59.5639V59.5639Z" fill="#72351C"/>
<path opacity="0.1" d="M122.002 62.0566C122.029 62.1873 122.029 62.3223 122.002 62.4529C122.002 62.4529 121.965 62.7981 122.023 62.8577" fill="black"/>
<path opacity="0.1" d="M120.216 62.1376C120.244 62.2682 120.244 62.4032 120.216 62.5339C120.216 62.5339 120.18 62.879 120.238 62.9387" fill="black"/>
<path opacity="0.1" d="M120.201 63.5544C120.258 63.5749 120.321 63.5749 120.378 63.5544C120.448 63.5333 120.522 63.5333 120.591 63.5544" fill="black"/>
<path opacity="0.1" d="M120.291 63.0346C120.498 63.0445 120.706 63.0119 120.9 62.9387C120.9 62.9387 121.65 63.122 121.863 62.9899" fill="black"/>
<path d="M120.065 66.2006H119.888C119.809 66.2006 119.745 66.2645 119.745 66.3433C119.745 66.4221 119.809 66.486 119.888 66.486H120.065C120.144 66.486 120.208 66.4221 120.208 66.3433C120.208 66.2645 120.144 66.2006 120.065 66.2006Z" fill="#FDB797"/>
<path d="M119.747 66.2773L119.995 66.2666L120.208 66.3007H120.133L119.747 66.2773Z" fill="#F0E4E4"/>
<path d="M121.414 65.082H121.661L121.874 65.1033H121.799L121.414 65.082Z" fill="#F0E4E4"/>
<path d="M121.414 65.1332H121.661L121.874 65.1545H121.799L121.414 65.1332Z" fill="#F0E4E4"/>
<path d="M121.414 65.1864H121.661L121.874 65.2077H121.799L121.414 65.1864Z" fill="#F0E4E4"/>
<path d="M121.414 65.2375H121.661L121.874 65.2588H121.799L121.414 65.2375Z" fill="#F0E4E4"/>
<path d="M119.747 66.4753H119.995L120.208 66.5009H120.133L119.747 66.4753Z" fill="#F0E4E4"/>
<path d="M119.747 66.4498H119.995L120.208 66.4754H120.133L119.747 66.4498Z" fill="#F0E4E4"/>
<path d="M119.747 66.4243H119.995L120.208 66.4499H120.133L119.747 66.4243Z" fill="#F0E4E4"/>
<path d="M119.747 66.3987H119.995L120.208 66.4243H120.133L119.747 66.3987Z" fill="#F0E4E4"/>
<path d="M119.747 66.2389L119.995 66.2283L120.208 66.2624H120.133L119.747 66.2389Z" fill="#F0E4E4"/>
<path d="M119.747 66.1941L119.995 66.1835L120.208 66.2176H120.133L119.747 66.1941Z" fill="#F0E4E4"/>
<path opacity="0.1" d="M121.267 59.909C121.243 60.1342 121.272 60.3618 121.352 60.5738C121.391 60.6767 121.409 60.7867 121.403 60.8968C121.398 61.0068 121.369 61.1145 121.32 61.213C121.353 61.2205 121.387 61.2202 121.419 61.212C121.452 61.2039 121.482 61.1881 121.507 61.1661C121.56 61.1197 121.606 61.0659 121.644 61.0063C121.683 60.9577 121.712 60.9009 121.727 60.8401C121.733 60.7444 121.719 60.6484 121.684 60.5589C121.643 60.3957 121.613 60.2298 121.595 60.0624C121.582 59.9602 121.595 59.6662 121.48 59.6363C121.365 59.6065 121.288 59.8238 121.267 59.909Z" fill="black"/>
<path d="M121.282 59.9026C121.258 60.1278 121.287 60.3554 121.367 60.5673C121.406 60.6702 121.424 60.7802 121.418 60.8903C121.413 61.0004 121.384 61.1081 121.335 61.2065C121.368 61.214 121.402 61.2137 121.434 61.2056C121.467 61.1974 121.497 61.1817 121.522 61.1596C121.575 61.1133 121.621 61.0594 121.659 60.9998C121.698 60.9512 121.727 60.8945 121.742 60.8337C121.748 60.7379 121.734 60.6419 121.699 60.5524C121.658 60.3892 121.628 60.2234 121.61 60.056C121.597 59.9537 121.61 59.6597 121.495 59.6299C121.38 59.6001 121.303 59.8152 121.282 59.9026Z" fill="#72351C"/>
<path opacity="0.1" d="M121.022 60.0603C121.073 60.1135 121.083 60.1924 121.126 60.252C121.164 60.2926 121.21 60.3244 121.262 60.345C121.313 60.3657 121.369 60.3746 121.424 60.3713C121.455 60.3697 121.485 60.3764 121.512 60.3905C121.558 60.4203 121.561 60.4885 121.59 60.5354C121.606 60.5525 121.626 60.5661 121.647 60.5754C121.669 60.5848 121.692 60.5896 121.715 60.5896C121.738 60.5896 121.762 60.5848 121.783 60.5754C121.804 60.5661 121.824 60.5525 121.84 60.5354C121.901 60.4619 121.935 60.3692 121.936 60.2733C121.946 60.1678 121.946 60.0614 121.936 59.9559C121.933 59.835 121.885 59.7195 121.801 59.632C121.731 59.5802 121.651 59.5452 121.565 59.5298C121.448 59.4885 121.322 59.4789 121.201 59.5021C121.141 59.5217 121.086 59.5497 121.034 59.5852C120.962 59.632 120.891 59.6796 120.821 59.7279C120.742 59.7833 120.593 59.8941 120.738 59.9537C120.83 59.9964 120.945 59.9772 121.022 60.0603Z" fill="black"/>
<path d="M121.036 60.0517C121.088 60.105 121.098 60.1838 121.141 60.2435C121.179 60.2841 121.225 60.3159 121.277 60.3365C121.328 60.3571 121.384 60.3661 121.439 60.3628C121.469 60.3612 121.5 60.3678 121.527 60.3819C121.573 60.4118 121.576 60.48 121.605 60.5268C121.621 60.5439 121.641 60.5576 121.662 60.5669C121.683 60.5762 121.707 60.581 121.73 60.581C121.753 60.581 121.776 60.5762 121.798 60.5669C121.819 60.5576 121.839 60.5439 121.855 60.5268C121.916 60.4533 121.95 60.3606 121.95 60.2648C121.961 60.1592 121.961 60.0529 121.95 59.9473C121.948 59.8264 121.9 59.711 121.816 59.6235C121.746 59.5717 121.665 59.5367 121.58 59.5212C121.463 59.4799 121.337 59.4704 121.215 59.4935C121.156 59.5132 121.1 59.5412 121.049 59.5766C120.977 59.6235 120.906 59.6711 120.836 59.7194C120.757 59.7748 120.608 59.8855 120.753 59.9452C120.845 59.9878 120.966 59.9708 121.036 60.0517Z" fill="#72351C"/>
<path d="M121.428 65.082H121.676L121.889 65.1033H121.818L121.428 65.082Z" fill="#F0E4E4"/>
<path d="M121.428 65.1332H121.676L121.889 65.1545H121.818L121.428 65.1332Z" fill="#F0E4E4"/>
<path d="M121.428 65.1864H121.676L121.889 65.2077H121.818L121.428 65.1864Z" fill="#F0E4E4"/>
<path d="M121.428 65.2375H121.676L121.889 65.2588H121.818L121.428 65.2375Z" fill="#F0E4E4"/>
<path d="M121.322 68.0648H121.569L121.782 68.0861H121.708L121.322 68.0648Z" fill="#F0E4E4"/>
<path d="M121.322 68.118H121.569L121.782 68.1393H121.708L121.322 68.118Z" fill="#F0E4E4"/>
<path d="M121.322 68.1692H121.569L121.782 68.1905H121.708L121.322 68.1692Z" fill="#F0E4E4"/>
<path d="M121.322 68.2203H121.569L121.782 68.2416H121.708L121.322 68.2203Z" fill="#F0E4E4"/>
</g>
<defs>
<linearGradient id="paint0_linear_1_25" x1="96.2304" y1="129.998" x2="96.2304" y2="81.0505" gradientUnits="userSpaceOnUse">
<stop stop-color="#808080" stop-opacity="0.25"/>
<stop offset="0.54" stop-color="#808080" stop-opacity="0.12"/>
<stop offset="1" stop-color="#808080" stop-opacity="0.1"/>
</linearGradient>
<linearGradient id="paint1_linear_1_25" x1="67909.7" y1="52246.1" x2="67909.7" y2="0" gradientUnits="userSpaceOnUse">
<stop stop-color="#808080" stop-opacity="0.25"/>
<stop offset="0.54" stop-color="#808080" stop-opacity="0.12"/>
<stop offset="1" stop-color="#808080" stop-opacity="0.1"/>
</linearGradient>
<linearGradient id="paint2_linear_1_25" x1="41634.5" y1="61047.3" x2="41634.5" y2="26293.6" gradientUnits="userSpaceOnUse">
<stop stop-color="#808080" stop-opacity="0.25"/>
<stop offset="0.54" stop-color="#808080" stop-opacity="0.12"/>
<stop offset="1" stop-color="#808080" stop-opacity="0.1"/>
</linearGradient>
<linearGradient id="paint3_linear_1_25" x1="3089.72" y1="5676.23" x2="3089.72" y2="5025.35" gradientUnits="userSpaceOnUse">
<stop stop-color="#808080" stop-opacity="0.25"/>
<stop offset="0.54" stop-color="#808080" stop-opacity="0.12"/>
<stop offset="1" stop-color="#808080" stop-opacity="0.1"/>
</linearGradient>
<clipPath id="clip0_1_25">
<rect width="202.795" height="130" fill="white" transform="translate(0.602661)"/>
</clipPath>
</defs>
</svg>
